<svg id="Capa_1" enable-background="new 0 0 512 512" height="512" viewBox="0 0 512 512" width="512" xmlns="http://www.w3.org/2000/svg"><g><path d="m456.225 118.225-23.628-13.642c-3.293-1.901-7.105-2.082-10.402-.827l2.105 20.337c.284 2.744-2.662 4.654-5.051 3.275l-8.16-4.711c-.396-.228-.818-.362-1.244-.416-.188 3.099.822 6.189 2.848 8.585 1.381 1.633 1.641 3.934.571 5.786l-25.444 44.071-30.311-17.5c3.22 10.664 2.215 22.579-3.781 32.965l-5.055 8.755 31.552 18.217c8.082 4.666 18.416 1.897 23.081-6.185l37.905-65.654c.876-1.518 2.483-2.518 4.236-2.497 4.247.049 8.395-2.132 10.67-6.072l4.556-7.891c3.354-5.811 1.363-13.241-4.448-16.596z" fill="#ffbd86"/><g><path d="m421.905 100.96c-.186-1.793.2-3.6 1.101-5.161l10.173-17.62-2.623-2.669-48.914-28.241c-.911-.526-1.948-.804-2.998-.804-1.738 0-3.389.751-4.529 2.062l-8.807 10.124-5.699-3.291c-2.088-1.206-4.46-1.843-6.858-1.843-4.9 0-9.464 2.633-11.912 6.873l-4.156 7.198c-3.178 5.506-2.171 12.358 2.326 16.711l-14.604 14.192-.025 1.419-12.948 22.427 27.506 15.88c.59.341 1.167.697 1.735 1.061l5.089-8.814c.933-1.616 3-2.17 4.616-1.237l7.744 4.471c16.568 9.566 37.424 4.947 48.533-10.079 1.034-1.398 2.929-1.833 4.434-.963l8.16 4.711c2.389 1.379 5.335-.531 5.051-3.275z" fill="#fed2a4"/><g><path d="m334.848 27.71-20.363 35.27c-7.465 12.931-3.035 29.465 9.895 36.93l16.095-15.641c-4.714-3.888-6.082-10.713-2.925-16.181l4.156-7.198c3.518-6.094 11.31-8.182 17.404-4.663l6.412 3.702 9.348-10.745c1.571-1.805 4.2-2.245 6.272-1.048l52.038 30.044 18.059-13.732c5.742-4.366 5.184-13.171-1.063-16.778l-60.17-34.739c-19.313-11.151-44.008-4.534-55.158 14.779z" fill="#bb5d4c"/></g><path d="m334.848 27.709-20.363 35.27c-7.465 12.931-3.035 29.465 9.896 36.93l.025-1.419 14.604-14.192c-4.497-4.353-5.504-11.206-2.326-16.711l23.307-39.878c5.18-8.972 13.285-15.198 22.413-18.182-17.783-5.852-37.826 1.33-47.556 18.182z" fill="#a44f3e"/></g><path d="m338.937 138.218-31.628-18.26c-3.109-1.795-6.776-1.721-9.723-.143l16.318 9.421c9.674 5.585 13.502 18.33 8.506 28.322-5.163 9.569-17.186 13.018-26.636 7.641l-19.67-11.192-57.699 99.937 1.191 1.842 23.788 13.734h66.877l2.837-1 41.496-71.873c11.811-20.458 4.802-46.618-15.657-58.429z" fill="#62dbfb"/><g><path d="m295.774 165.199-19.67-11.192-57.699 99.937 1.191 1.842 20.746 11.978 58.747-101.083c-1.128-.388-2.24-.87-3.315-1.482z" fill="#01d0fb"/></g><path d="m151.08 467.089 52.912-91.647-36.575-21.116-48.768 84.467z" fill="#fed2a4"/><g><g><path d="m121.187 381.016h73.338v20.263h-73.338z" fill="#ffbd86" transform="matrix(.5 -.866 .866 .5 -259.816 332.281)"/></g></g><path d="m151.08 467.089 16.243-28.134-36.575-21.117-12.099 20.955z" fill="#dff6fd"/><g><path d="m133.911 452.109 14.049-24.333-17.212-9.938-12.099 20.955z" fill="#c8effe"/></g><path d="m379.338 291.049c0-12.442-10.087-22.529-22.529-22.529h-11.013v49.3c0 2.206-1.794 4-4 4h-4.692v85.849h42.234z" fill="#fed2a4"/><path d="m357 268.525c-.064-.001-.127-.005-.191-.005h-11.013v49.3c0 2.206-1.794 4-4 4h-4.692v85.849h19.896z" fill="#ffbd86"/><g><path d="m337.105 379.328h42.234v28.341h-42.234z" fill="#dff6fd"/></g><path d="m337.105 379.328h19.895v28.341h-19.895z" fill="#c8effe"/><g><path d="m337.105 438.869v-31.2h56.895c15.328 0 27.754 12.426 27.754 27.754 0 4.665-3.781 8.446-8.446 8.446h-71.204c-2.761 0-4.999-2.238-4.999-5z" fill="#54469c"/></g><g><path d="m342.105 443.869h14.895v-36.2h-19.895v31.2c0 2.762 2.238 5 5 5z" fill="#463b84"/></g><g><path d="m346.796 268.52h-103.144l-25.246-14.576-54.214 93.901c-1.381 2.391-.561 5.449 1.83 6.83l38.365 22.15c2.391 1.381 5.449.561 6.83-1.83l30.123-52.175h100.456c2.761 0 5-2.239 5-5z" fill="#fac600"/></g><g><path d="m199.501 354.675c-2.391-1.381-3.211-4.439-1.83-6.83l45.844-79.404-25.109-14.497-54.214 93.901c-1.381 2.391-.561 5.449 1.83 6.83l38.365 22.15c2.391 1.381 5.449.561 6.83-1.83l5.87-10.167z" fill="#e8b800"/></g><g><path d="m313.904 129.236-57.245-33.05c-8.082-4.666-18.416-1.897-23.082 6.185l-46.022 79.712c-.96 1.663-2.793 2.679-4.703 2.482-4.617-.477-9.296 1.722-11.767 6.002l-4.556 7.891c-3.355 5.811-1.364 13.241 4.447 16.595l23.628 13.642c5.811 3.355 13.241 1.364 16.595-4.447l4.556-7.891c2.447-4.238 2.044-9.332-.607-13.081-1.137-1.608-1.266-3.718-.282-5.423l34.197-59.231 46.71 26.577c9.45 5.377 21.474 1.928 26.636-7.641 4.997-9.992 1.169-22.737-8.505-28.322z" fill="#fed2a4"/></g><g><path d="m178.674 209.35 4.678-8.103c2.537-4.395 7.343-6.653 12.084-6.163 1.961.203 3.843-.841 4.829-2.549l47.26-81.856c4.329-7.498 13.405-10.521 21.239-7.505l-12.104-6.988c-8.082-4.666-18.416-1.897-23.082 6.185l-46.022 79.712c-.96 1.663-2.793 2.679-4.703 2.482-4.617-.477-9.296 1.722-11.767 6.002l-4.556 7.891c-3.355 5.811-1.364 13.241 4.447 16.595l6.441 3.719c-.812-3.073-.459-6.453 1.256-9.422z" fill="#ffbd86"/></g><g><path d="m159 474-40.351-35.207-22.662 27.341c-1.813 2.187-1.441 5.444.818 7.167l36.195 31.199h50.69v-10.082c0-9.721-7.161-17.958-16.788-19.309z" fill="#54469c"/></g><g><path d="m121.151 466.134 12.101-14.6-14.603-12.741-22.662 27.341c-1.813 2.188-1.441 5.444.818 7.167l36.195 31.199h25.163l-36.195-31.199c-2.259-1.723-2.63-4.98-.817-7.167z" fill="#463b84"/></g><g><path d="m61.687 133.511h122.22c4.142 0 7.5-3.358 7.5-7.5s-3.358-7.5-7.5-7.5h-122.22c-4.142 0-7.5 3.358-7.5 7.5s3.357 7.5 7.5 7.5z"/><path d="m151.24 174.064c4.142 0 7.5-3.358 7.5-7.5s-3.358-7.5-7.5-7.5h-104.761c-4.142 0-7.5 3.358-7.5 7.5s3.358 7.5 7.5 7.5z"/><path d="m82.526 199.616c-4.142 0-7.5 3.358-7.5 7.5s3.358 7.5 7.5 7.5h54.07c4.142 0 7.5-3.358 7.5-7.5s-3.358-7.5-7.5-7.5z"/><path d="m385.328 104.737c1.181.682 2.471 1.006 3.743 1.006 2.592 0 5.113-1.346 6.502-3.751l6.195-10.731c2.071-3.587.842-8.174-2.745-10.245-3.588-2.072-8.175-.842-10.245 2.745l-6.195 10.731c-2.071 3.588-.842 8.174 2.745 10.245z"/><path d="m465.521 497h-274.331v-2.583c0-13.382-9.994-24.876-23.246-26.736l-5.694-.799-1.59-1.388 20.225-35.03c2.071-3.587.842-8.174-2.745-10.245-3.588-2.072-8.174-.842-10.245 2.745l-3.317 5.745-23.585-13.617 28.669-49.656 23.585 13.617-7.852 13.601c-2.071 3.587-.842 8.174 2.745 10.245 3.586 2.071 8.173.842 10.245-2.745l8.76-15.172c.994-.022 1.993-.149 2.978-.413 3.226-.864 5.921-2.933 7.59-5.824l27.958-48.425h35.329c4.142 0 7.5-3.358 7.5-7.5s-3.358-7.5-7.5-7.5h-41.179c-5.762 0-11.087-3.361-13.566-8.562-1.782-3.739-6.259-5.326-9.997-3.544-3.739 1.782-5.326 6.258-3.544 9.997 3.406 7.146 9.5 12.553 16.719 15.235l-23.46 40.634-34.035-19.65 49.214-85.241 18.751 10.826c1.14.658 2.434 1.005 3.75 1.005h95.645v39.3h-23.298c-4.142 0-7.5 3.358-7.5 7.5s3.358 7.5 7.5 7.5h13.604v108.549c0 6.893 5.607 12.5 12.5 12.5h71.204c8.792 0 15.946-7.153 15.946-15.946 0-19.439-15.815-35.254-35.254-35.254h-7.162v-109.12c0-16.558-13.471-30.029-30.029-30.029h-30.722l26.196-45.372 24.191 13.967c3.759 2.17 7.931 3.279 12.159 3.279 2.119 0 4.252-.279 6.354-.842 6.295-1.687 11.556-5.724 14.814-11.368l10.234-17.726c2.071-3.587.842-8.174-2.745-10.245-3.587-2.072-8.174-.842-10.245 2.745l-10.234 17.726c-1.255 2.174-3.282 3.729-5.706 4.378-2.426.65-4.958.316-7.13-.938l-24.191-13.967 1.305-2.26c4.131-7.154 6.282-14.912 6.653-22.646l16.327 9.427c3.585 2.071 8.174.841 10.245-2.745l25.445-44.071c.91-1.576 1.433-3.3 1.594-5.049 1.918-.073 3.819-.65 5.504-1.742 3.448-2.235 5.326-6.163 4.903-10.249l-1.163-11.232 21.878 12.631c1.076.621 1.845 1.624 2.166 2.823s.157 2.452-.464 3.527l-4.556 7.892c-.837 1.452-2.449 2.33-4.086 2.322-4.422-.034-8.563 2.341-10.819 6.247l-10.171 17.617c-2.071 3.587-.842 8.174 2.745 10.245 3.586 2.071 8.174.841 10.245-2.745l9.477-16.415c6.458-.471 12.332-4.111 15.599-9.771l4.556-7.891c2.625-4.545 3.322-9.84 1.963-14.91-1.358-5.069-4.61-9.307-9.155-11.931l-23.628-13.642c-1.543-.891-3.173-1.556-4.851-1.995l7.423-12.858 16.858-12.819c4.7-3.574 7.283-9.225 6.91-15.118s-3.648-11.173-8.762-14.125l-60.17-34.739c-11.075-6.395-23.978-8.093-36.331-4.783s-22.678 11.232-29.072 22.308l-20.363 35.27c-8.233 14.26-5.099 32.008 6.56 42.707l-5.979 10.356c-3.251-1.25-6.783-1.505-10.226-.701l-37.935-21.902c-11.651-6.727-26.601-2.72-33.327 8.93l-45.254 78.381c-7.078-.089-13.674 3.642-17.239 9.815l-4.556 7.891c-5.416 9.383-2.19 21.423 7.192 26.84l23.628 13.642c3.027 1.748 6.388 2.641 9.792 2.641 1.707 0 3.425-.225 5.117-.678 5.07-1.358 9.307-4.61 11.931-9.155l4.556-7.891c3.554-6.155 3.468-13.777-.119-19.836l29.702-51.445 14.002 7.967-108.138 187.303c-1.669 2.892-2.113 6.26-1.249 9.486.264.985.653 1.913 1.131 2.785l-45.107 78.127-22.259 26.854c-2.161 2.607-3.179 6.031-2.795 9.395.374 3.272 2.053 6.3 4.622 8.353l20.773 17.905h-60.7c-4.142 0-7.5 3.358-7.5 7.5s3.358 7.5 7.5 7.5h413.409c4.142 0 7.5-3.358 7.5-7.5s-3.358-7.5-7.5-7.5zm-120.917-167.009c5.543-1.279 9.692-6.245 9.692-12.17v-41.8h2.513c8.287 0 15.029 6.742 15.029 15.029v80.779h-27.234zm0 56.837h27.234v13.341h-27.234zm0 28.341h49.396c11.168 0 20.254 9.086 20.254 20.254 0 .521-.424.946-.946.946h-68.704zm40.47-244.732-20.036-11.568c-2.541-7.377-6.785-14.188-12.57-19.774l1.904 1.099c16.324 9.425 36.312 7.478 50.385-3.848zm31.438-78.39c-1.703 2.948-2.417 6.297-2.067 9.684l1.563 15.105-1.171-.676c-4.793-2.768-10.905-1.477-14.214 3-8.985 12.153-25.646 15.61-38.752 8.043l-7.743-4.47c-1.677-.969-3.538-1.463-5.423-1.463-.945 0-1.896.124-2.834.375-2.807.752-5.153 2.552-6.605 5.069l-1.313 2.274-16.276-9.397 8.677-15.029 15.348-14.915c1.529-1.486 2.354-3.553 2.267-5.684s-1.077-4.124-2.722-5.481c-1.978-1.631-2.483-4.426-1.202-6.645l4.156-7.198c1.444-2.503 4.655-3.364 7.159-1.918l6.412 3.702c3.108 1.794 7.052 1.136 9.409-1.573l7.995-9.19 43.758 25.264zm-95.533-25.318 20.363-35.27c4.391-7.605 11.481-13.046 19.964-15.319 2.833-.759 5.707-1.134 8.563-1.134 5.697 0 11.32 1.494 16.386 4.419l60.17 34.739c1.047.605 1.259 1.564 1.292 2.083.033.518-.056 1.497-1.019 2.229l-14.088 10.714-47.719-27.551c-5.168-2.983-11.763-1.881-15.68 2.622l-5.291 6.082-1.061-.612c-9.666-5.579-22.069-2.256-27.649 7.409l-4.157 7.199c-3.507 6.076-3.556 13.266-.575 19.187l-6.683 6.494c-5.856-6.113-7.255-15.6-2.816-23.291zm-68.206 65.374c-3.584-2.039-8.143-.802-10.204 2.769l-34.197 59.231c-2.429 4.207-2.172 9.506.652 13.502 1.044 1.478 1.137 3.441.236 5.002l-4.556 7.891c-.621 1.075-1.623 1.844-2.822 2.166-1.199.321-2.452.156-3.527-.464l-23.628-13.642c-2.22-1.282-2.983-4.131-1.702-6.351l4.555-7.89c.833-1.442 2.376-2.317 4.022-2.317.159 0 .318.008.478.024 4.82.506 9.512-1.933 11.97-6.192l46.022-79.712c2.591-4.487 8.35-6.031 12.836-3.44l57.245 33.05c6.185 3.571 8.732 11.958 5.6 18.368-1.536 2.784-4.061 4.797-7.122 5.675-3.1.889-6.349.5-9.149-1.093zm26.1 32.108 13.192 7.506c6.339 3.607 13.691 4.487 20.704 2.475 7.011-2.011 12.78-6.654 16.243-13.074.037-.068.073-.137.107-.207 2.89-5.781 3.594-12.224 2.435-18.297l3.634 2.098c16.844 9.726 22.636 31.341 12.911 48.185l-39.331 68.123h-63.106l-17.011-9.821zm-145.38 263.872 23.585 13.617-7.936 13.745-20.912-18.247zm42.697 68.917h-40.404l-32.454-27.975 16.183-19.524 34.555 30.15c1.096.957 2.447 1.574 3.889 1.776l7.902 1.109c5.89.827 10.331 5.935 10.331 11.881v2.583z"/></g></g></svg>